    <svg version="1.1" xmlns="http://www.w3.org/2000/svg" width="32" height="32" viewBox="0 0 32 32">
    <path d="M31.791 16.108c-0.482-0.523-1.109-0.895-1.807-1.133-0.691-0.233-1.464-0.337-2.276-0.337-0.442 0-0.9 0.029-1.366 0.093 0.116-0.668 0.18-1.359 0.18-2.056 0-1.237-0.197-2.504-0.645-3.764l-0.151-0.423-0.447 0.035c-1.893 0.162-3.676 0.79-5.256 1.725-0.773-1.673-2.466-3.742-4.023-4.618-1.557 0.877-3.251 2.945-4.024 4.618-1.58-0.935-3.363-1.563-5.256-1.725l-0.447-0.035-0.151 0.423c-0.447 1.26-0.645 2.527-0.645 3.764 0 0.697 0.064 1.388 0.18 2.056-0.465-0.064-0.924-0.093-1.365-0.093-0.813 0-1.586 0.105-2.277 0.337-0.697 0.238-1.325 0.61-1.807 1.133l-0.209 0.226 0.070 0.302c0.848 3.682 2.602 6.168 4.931 7.678 2.329 1.515 5.175 2.056 8.225 2.056 0.807 0 1.632-0.041 2.463-0.111 0.021 0.005 0.288 0.004 0.312 0.005 0.022-0.002 0.29 0 0.311-0.005 0.83 0.070 1.655 0.111 2.463 0.111 3.050 0 5.896-0.541 8.225-2.056 2.329-1.51 4.083-3.996 4.931-7.678l0.070-0.302-0.209-0.226zM21.405 16.346c-0.058-1.708-0.36-3.439-0.935-5.013 1.359-0.824 2.869-1.393 4.461-1.597 0.296 0.988 0.43 1.97 0.43 2.94 0 0.772-0.087 1.533-0.238 2.277-0.093 0.436-0.209 0.866-0.343 1.29-0.355 1.092-0.848 2.138-1.434 3.090-0.889 1.452-1.981 2.7-3.061 3.63 0.674-1.499 1.051-3.357 1.115-5.297 0.012-0.221 0.017-0.441 0.017-0.662 0-0.215-0.006-0.436-0.012-0.656zM7.069 9.736c1.591 0.204 3.101 0.773 4.461 1.597-0.575 1.574-0.877 3.305-0.935 5.013-0.006 0.221-0.012 0.442-0.012 0.656 0 0.221 0.006 0.441 0.017 0.662 0.064 1.94 0.441 3.799 1.116 5.297-1.081-0.93-2.173-2.178-3.062-3.63-0.587-0.952-1.080-1.999-1.434-3.090-0.134-0.424-0.25-0.854-0.343-1.29-0.151-0.744-0.238-1.504-0.238-2.277 0-0.97 0.134-1.952 0.43-2.94zM5.634 23.339c-1.993-1.3-3.526-3.369-4.357-6.65 0.302-0.261 0.673-0.465 1.109-0.61 0.546-0.186 1.192-0.278 1.906-0.278 0.517 0 1.069 0.046 1.638 0.151 0.604 2.26 1.777 4.298 3.119 5.935 0.993 1.203 2.073 2.19 3.13 2.888 0.244 0.162 0.488 0.308 0.726 0.43-2.788-0.035-5.286-0.564-7.272-1.866zM17.77 24.512c-0.017 0.011-0.035 0.029-0.052 0.041-0.36 0.273-0.744 0.447-1.162 0.522-0.029 0.006-0.052 0.006-0.081 0.012h-0.023c-0.023 0.006-0.053 0.006-0.082 0.011 0 0 0 0-0.006 0-0.039 0.003-0.322 0.005-0.363 0.007-0.041-0.002-0.324-0.004-0.364-0.007-0.006 0-0.006 0-0.006 0-0.030-0.006-0.059-0.006-0.082-0.011h-0.023c-0.029-0.006-0.052-0.006-0.081-0.012-0.418-0.076-0.801-0.25-1.162-0.522-0.017-0.012-0.034-0.030-0.052-0.041-0.744-0.587-1.382-1.632-1.818-2.956-0.308-0.929-0.511-1.992-0.604-3.114-0.041-0.47-0.064-0.947-0.064-1.434v-0.006c0-1.696 0.256-3.438 0.778-5.001 0.087-0.261 0.181-0.511 0.279-0.755 0.052-0.122 0.105-0.244 0.163-0.366 0.644-1.446 1.851-2.998 3.036-3.758 1.184 0.761 2.391 2.312 3.035 3.758 0.058 0.122 0.111 0.244 0.163 0.366 0.099 0.244 0.192 0.494 0.279 0.755 0.522 1.563 0.778 3.305 0.778 5.001v0.006c0 0.488-0.023 0.964-0.064 1.434-0.093 1.121-0.296 2.184-0.604 3.114-0.436 1.325-1.074 2.37-1.818 2.956zM26.366 23.339c-1.986 1.301-4.484 1.83-7.272 1.865 0.239-0.122 0.483-0.268 0.726-0.43 1.057-0.697 2.137-1.685 3.13-2.888 1.342-1.637 2.515-3.676 3.119-5.935 0.569-0.105 1.121-0.151 1.638-0.151 0.714 0 1.359 0.093 1.905 0.278 0.436 0.145 0.807 0.349 1.109 0.61-0.83 3.282-2.364 5.35-4.357 6.65z"></path>
    </svg>