<svg xmlns="http://www.w3.org/2000/svg" viewBox="0 0 1024 1024"><path fill="currentColor" fill-rule="evenodd" d="M 525 787 L 541 779 L 555 775 L 556 773 L 562 772 L 564 774 L 567 786 L 570 789 L 573 799 L 581 815 L 585 820 L 586 824 L 582 825 L 567 820 L 555 814 L 554 812 L 549 810 L 530 796 L 525 790 Z M 717 787 L 717 789 L 708 799 L 699 806 L 697 806 L 688 812 L 687 814 L 660 825 L 655 824 L 655 821 L 668 800 L 676 774 L 678 771 L 688 773 L 689 775 L 700 778 Z M 155 776 L 155 782 L 161 786 L 331 786 L 336 782 L 335 773 L 332 771 L 160 771 L 156 773 Z M 579 768 L 604 764 L 639 764 L 663 767 L 664 771 L 663 775 L 661 776 L 655 794 L 649 806 L 645 811 L 645 813 L 629 829 L 615 830 L 602 820 L 591 803 L 580 780 L 578 773 Z M 688 706 L 752 706 L 753 707 L 752 722 L 747 742 L 738 763 L 735 765 L 729 776 L 726 776 L 725 774 L 718 770 L 715 770 L 703 764 L 697 763 L 682 757 L 686 733 L 687 707 Z M 567 707 L 568 706 L 672 706 L 673 707 L 673 721 L 669 750 L 667 753 L 646 750 L 600 750 L 574 754 L 570 738 L 569 721 L 567 720 Z M 487 707 L 488 706 L 552 706 L 554 710 L 554 725 L 559 758 L 556 760 L 546 762 L 533 768 L 530 768 L 520 773 L 516 777 L 512 776 L 501 757 L 494 738 L 492 737 L 488 719 Z M 155 692 L 156 700 L 161 703 L 414 703 L 419 700 L 420 692 L 415 688 L 160 688 L 156 690 Z M 572 648 L 574 645 L 603 649 L 641 649 L 668 646 L 670 649 L 672 664 L 673 691 L 672 692 L 665 691 L 662 692 L 576 692 L 568 691 L 567 690 L 567 676 L 569 675 Z M 731 623 L 736 632 L 739 634 L 748 656 L 753 679 L 753 690 L 747 692 L 730 692 L 729 691 L 726 692 L 692 692 L 689 691 L 687 685 L 687 669 L 683 642 L 689 639 L 702 636 L 727 625 L 728 623 Z M 511 621 L 516 622 L 518 625 L 530 631 L 549 638 L 556 639 L 558 641 L 554 673 L 554 686 L 552 691 L 538 691 L 537 692 L 488 692 L 487 691 L 488 675 L 492 658 L 494 657 L 499 642 L 508 624 Z M 155 610 L 155 616 L 161 620 L 413 620 L 419 617 L 420 615 L 420 610 L 415 605 L 409 604 L 407 605 L 394 605 L 393 604 L 316 604 L 315 605 L 168 604 L 160 605 Z M 655 570 L 658 569 L 666 571 L 693 584 L 695 587 L 706 594 L 721 609 L 721 611 L 708 618 L 689 624 L 688 626 L 679 627 L 670 598 L 662 581 L 656 574 Z M 588 570 L 588 572 L 586 573 L 578 586 L 570 604 L 570 607 L 567 610 L 562 626 L 557 626 L 556 624 L 539 619 L 522 610 L 524 604 L 546 587 L 548 584 L 568 574 L 571 574 L 583 569 Z M 577 627 L 582 611 L 585 606 L 585 603 L 587 602 L 595 585 L 600 578 L 613 565 L 617 563 L 626 563 L 630 565 L 646 582 L 657 604 L 661 618 L 663 619 L 665 630 L 662 632 L 646 634 L 599 634 L 578 631 Z M 603 549 L 602 551 L 586 553 L 566 559 L 549 567 L 548 569 L 543 571 L 523 585 L 505 604 L 505 606 L 499 613 L 496 619 L 493 621 L 484 640 L 478 658 L 476 672 L 474 673 L 473 678 L 473 690 L 472 691 L 474 722 L 476 723 L 479 740 L 485 754 L 485 757 L 491 769 L 495 773 L 496 777 L 503 787 L 508 792 L 508 794 L 530 815 L 532 815 L 544 824 L 555 829 L 556 831 L 562 834 L 583 841 L 609 845 L 643 844 L 662 840 L 686 831 L 687 829 L 701 822 L 711 815 L 739 787 L 747 775 L 754 760 L 756 759 L 762 742 L 768 712 L 767 675 L 763 656 L 756 636 L 754 635 L 746 618 L 737 605 L 720 586 L 717 585 L 699 571 L 693 569 L 691 566 L 664 555 L 646 551 L 639 551 L 638 549 L 624 549 L 623 548 Z M 506 439 L 507 445 L 511 448 L 650 448 L 653 447 L 656 442 L 655 436 L 652 433 L 510 433 Z M 166 445 L 172 439 L 173 436 L 205 405 L 210 398 L 244 365 L 246 361 L 250 357 L 254 357 L 277 380 L 284 389 L 310 414 L 312 418 L 321 427 L 325 429 L 331 428 L 362 395 L 365 395 L 439 469 L 440 486 L 432 494 L 172 494 L 166 487 Z M 506 358 L 506 362 L 510 367 L 759 367 L 763 363 L 763 356 L 758 352 L 512 352 L 508 354 Z M 837 299 L 906 299 L 914 302 L 925 314 L 927 320 L 927 840 L 925 852 L 923 853 L 922 859 L 915 873 L 905 883 L 895 887 L 894 889 L 886 891 L 875 891 L 866 889 L 865 887 L 861 886 L 848 876 L 841 864 L 836 844 L 836 300 Z M 368 282 L 378 281 L 386 284 L 395 296 L 395 309 L 391 316 L 383 322 L 379 323 L 367 322 L 361 319 L 355 311 L 354 308 L 355 294 L 362 285 Z M 506 282 L 510 288 L 760 288 L 764 280 L 763 277 L 758 273 L 512 273 L 507 277 Z M 368 267 L 367 269 L 364 269 L 355 273 L 343 285 L 339 299 L 340 312 L 343 319 L 347 323 L 347 325 L 356 333 L 372 338 L 383 337 L 391 334 L 403 325 L 410 308 L 409 293 L 402 279 L 391 271 L 384 269 L 383 267 Z M 172 228 L 433 228 L 440 236 L 440 446 L 436 447 L 415 426 L 408 417 L 367 377 L 360 377 L 328 410 L 325 410 L 307 390 L 280 364 L 279 361 L 257 339 L 253 338 L 247 340 L 226 361 L 218 371 L 190 398 L 181 409 L 169 421 L 166 420 L 166 235 Z M 156 222 L 153 227 L 151 235 L 151 487 L 156 499 L 163 505 L 170 508 L 434 508 L 444 504 L 449 499 L 453 490 L 453 232 L 450 224 L 443 217 L 435 214 L 181 214 L 177 213 L 169 214 Z M 111 141 L 121 136 L 122 134 L 129 132 L 795 132 L 801 134 L 802 136 L 813 143 L 819 153 L 821 162 L 821 843 L 827 870 L 839 887 L 838 891 L 145 891 L 134 889 L 133 887 L 124 884 L 117 880 L 108 871 L 101 856 L 99 855 L 97 844 L 97 166 L 102 152 Z M 95 135 L 95 137 L 87 149 L 84 159 L 84 164 L 82 165 L 82 844 L 84 845 L 85 857 L 89 866 L 89 869 L 100 885 L 103 886 L 108 892 L 119 899 L 141 905 L 888 905 L 897 903 L 909 898 L 915 894 L 925 884 L 934 869 L 939 853 L 941 839 L 941 320 L 938 309 L 934 301 L 925 292 L 916 288 L 915 286 L 908 284 L 837 284 L 836 283 L 836 160 L 834 150 L 830 141 L 827 139 L 824 133 L 819 128 L 804 120 L 798 119 L 797 117 L 127 117 L 126 119 L 119 120 L 108 125 L 102 130 L 100 130 Z"/></svg>