<svg xmlns="http://www.w3.org/2000/svg" viewBox="0 0 1024 1024"><path fill="currentColor" fill-rule="evenodd" d="M 148 852 L 150 854 L 291 854 L 294 851 L 293 845 L 289 844 L 153 844 L 149 845 Z M 148 776 L 149 783 L 421 783 L 423 781 L 423 777 L 421 774 L 150 774 Z M 734 770 L 734 774 L 728 782 L 724 784 L 714 794 L 712 794 L 698 805 L 695 805 L 676 815 L 668 817 L 662 816 L 662 813 L 678 791 L 678 788 L 688 770 L 693 754 L 700 754 L 709 757 L 720 763 L 728 765 Z M 514 770 L 524 763 L 527 763 L 548 754 L 554 754 L 559 769 L 568 785 L 568 788 L 584 811 L 585 816 L 580 817 L 577 815 L 573 815 L 554 805 L 551 805 L 523 784 L 515 775 Z M 681 750 L 682 756 L 677 771 L 669 784 L 669 787 L 659 800 L 659 802 L 647 815 L 645 815 L 634 823 L 629 823 L 628 745 L 652 745 Z M 566 750 L 598 745 L 619 745 L 618 823 L 614 823 L 601 815 L 587 800 L 587 798 L 577 784 L 567 763 L 567 758 L 565 754 Z M 148 706 L 148 711 L 150 713 L 421 713 L 423 710 L 423 706 L 421 704 L 150 704 Z M 706 681 L 771 682 L 770 701 L 764 723 L 756 743 L 744 762 L 740 762 L 728 754 L 725 754 L 708 746 L 697 743 L 703 709 L 704 688 Z M 628 682 L 694 681 L 694 702 L 688 738 L 686 740 L 679 740 L 660 736 L 629 734 Z M 553 682 L 618 681 L 619 733 L 614 735 L 598 735 L 569 740 L 561 740 L 557 728 L 557 720 L 553 698 Z M 477 682 L 542 681 L 545 713 L 550 743 L 528 751 L 508 762 L 505 762 L 497 752 L 496 747 L 487 731 L 479 703 Z M 148 636 L 148 641 L 151 643 L 419 643 L 423 640 L 423 636 L 420 633 L 151 633 Z M 688 613 L 694 647 L 694 670 L 628 669 L 629 617 L 657 616 L 678 612 Z M 560 613 L 570 612 L 592 616 L 618 617 L 619 669 L 554 671 L 553 653 L 557 632 L 557 623 Z M 744 590 L 748 594 L 750 600 L 759 614 L 760 620 L 766 634 L 770 651 L 771 669 L 706 671 L 698 609 L 700 607 L 715 602 L 719 602 L 740 590 Z M 505 590 L 513 592 L 530 602 L 537 603 L 550 609 L 545 639 L 542 670 L 477 669 L 478 655 L 482 637 L 486 628 L 486 623 L 498 599 Z M 148 566 L 148 571 L 151 573 L 419 573 L 423 571 L 423 566 L 420 563 L 151 563 Z M 586 535 L 586 539 L 581 543 L 577 551 L 568 563 L 568 566 L 558 585 L 558 589 L 554 598 L 549 598 L 534 593 L 514 582 L 514 578 L 517 575 L 517 573 L 520 572 L 530 561 L 532 561 L 544 551 L 562 541 L 565 541 L 581 534 Z M 661 534 L 666 533 L 681 540 L 687 541 L 701 550 L 707 552 L 713 558 L 719 561 L 735 578 L 735 582 L 715 593 L 710 593 L 699 598 L 694 598 L 685 574 L 673 552 L 668 547 L 666 542 L 661 538 Z M 618 530 L 619 606 L 595 606 L 566 602 L 565 597 L 568 587 L 574 574 L 577 571 L 579 564 L 587 554 L 587 552 L 600 538 L 609 531 Z M 629 529 L 639 531 L 658 548 L 668 562 L 679 584 L 679 588 L 683 596 L 682 602 L 641 607 L 628 606 Z M 617 518 L 599 520 L 594 522 L 586 522 L 568 528 L 561 532 L 558 532 L 548 537 L 542 542 L 539 542 L 521 556 L 507 570 L 490 593 L 478 617 L 468 655 L 467 687 L 471 711 L 480 739 L 491 760 L 497 767 L 498 771 L 518 793 L 542 811 L 568 824 L 572 824 L 581 828 L 602 833 L 638 834 L 657 831 L 681 824 L 704 813 L 716 804 L 718 804 L 749 773 L 763 751 L 769 739 L 769 735 L 771 733 L 776 719 L 780 703 L 781 664 L 779 644 L 766 606 L 748 577 L 726 554 L 699 536 L 667 523 L 643 519 Z M 512 443 L 512 447 L 514 450 L 648 450 L 651 445 L 650 442 L 647 440 L 516 440 Z M 512 373 L 512 377 L 515 380 L 770 380 L 773 376 L 772 371 L 769 370 L 516 370 Z M 157 409 L 243 320 L 247 320 L 325 398 L 333 396 L 336 391 L 366 361 L 369 361 L 406 398 L 416 410 L 452 445 L 452 460 L 446 467 L 440 469 L 170 469 L 164 467 L 157 457 Z M 512 307 L 514 309 L 771 309 L 773 306 L 772 301 L 768 299 L 518 299 L 513 300 Z M 841 279 L 908 279 L 917 283 L 925 290 L 930 299 L 932 307 L 932 855 L 929 871 L 920 887 L 907 898 L 891 904 L 875 903 L 858 894 L 851 887 L 846 879 L 840 862 Z M 375 252 L 385 252 L 395 257 L 400 263 L 404 272 L 404 279 L 401 287 L 394 295 L 383 300 L 376 300 L 367 296 L 360 289 L 356 280 L 356 271 L 360 262 L 366 256 Z M 372 242 L 366 244 L 357 250 L 349 261 L 346 270 L 347 286 L 355 299 L 364 306 L 370 309 L 389 309 L 400 303 L 405 299 L 409 293 L 414 280 L 414 270 L 410 260 L 403 250 L 388 242 Z M 512 232 L 512 236 L 514 239 L 770 239 L 773 236 L 772 230 L 769 229 L 516 229 Z M 162 202 L 165 200 L 446 201 L 452 209 L 452 425 L 447 426 L 415 392 L 378 356 L 375 351 L 361 351 L 333 381 L 329 384 L 325 384 L 252 310 L 247 309 L 236 311 L 234 315 L 206 342 L 204 346 L 184 365 L 174 377 L 162 389 L 158 389 L 157 210 Z M 456 196 L 449 191 L 441 189 L 163 190 L 157 193 L 151 199 L 147 209 L 147 458 L 153 471 L 163 478 L 168 479 L 442 479 L 455 473 L 459 468 L 463 457 L 463 210 L 461 203 Z M 105 128 L 107 128 L 115 122 L 122 120 L 801 120 L 809 123 L 821 132 L 828 143 L 831 161 L 831 869 L 841 891 L 849 899 L 848 904 L 132 904 L 124 902 L 114 897 L 102 886 L 94 872 L 92 864 L 92 149 L 96 139 Z M 94 124 L 89 131 L 82 148 L 82 864 L 85 876 L 93 892 L 105 904 L 119 911 L 129 914 L 895 914 L 907 910 L 921 901 L 930 891 L 931 887 L 934 884 L 939 873 L 941 864 L 941 300 L 937 290 L 931 281 L 921 273 L 914 270 L 840 268 L 840 148 L 835 134 L 830 128 L 830 126 L 823 119 L 809 111 L 794 108 L 129 108 L 114 111 L 104 116 Z"/></svg>